<svg viewBox="0 0 16 16" xmlns="http://www.w3.org/2000/svg">
<path d="M13.3334 2.66669H2.66671C1.93337 2.66669 1.33337 3.26669 1.33337 4.00002V12C1.33337 12.7334 1.93337 13.3334 2.66671 13.3334H13.3334C14.0667 13.3334 14.6667 12.7334 14.6667 12V4.00002C14.6667 3.26669 14.0667 2.66669 13.3334 2.66669ZM13.0667 5.50002L8.70671 8.22669C8.27337 8.50002 7.72671 8.50002 7.29337 8.22669L2.93337 5.50002C2.86653 5.46249 2.80799 5.41179 2.7613 5.35099C2.71461 5.29018 2.68075 5.22054 2.66176 5.14627C2.64277 5.072 2.63904 4.99464 2.65081 4.91889C2.66258 4.84314 2.6896 4.77056 2.73023 4.70555C2.77086 4.64055 2.82426 4.58446 2.88719 4.54068C2.95013 4.49691 3.02129 4.46636 3.09637 4.45089C3.17145 4.43541 3.2489 4.43533 3.32401 4.45065C3.39912 4.46597 3.47035 4.49638 3.53337 4.54002L8.00004 7.33335L12.4667 4.54002C12.5297 4.49638 12.601 4.46597 12.6761 4.45065C12.7512 4.43533 12.8286 4.43541 12.9037 4.45089C12.9788 4.46636 13.05 4.49691 13.1129 4.54068C13.1758 4.58446 13.2292 4.64055 13.2699 4.70555C13.3105 4.77056 13.3375 4.84314 13.3493 4.91889C13.361 4.99464 13.3573 5.072 13.3383 5.14627C13.3193 5.22054 13.2855 5.29018 13.2388 5.35099C13.1921 5.41179 13.1336 5.46249 13.0667 5.50002Z"/>
</svg>
