<svg viewBox="0 0 16 16" xmlns="http://www.w3.org/2000/svg">
<path fill-rule="evenodd" clip-rule="evenodd" d="M7.99996 14L8.47196 14.4706C8.41002 14.5328 8.33641 14.5822 8.25536 14.6158C8.1743 14.6495 8.0874 14.6668 7.99963 14.6668C7.91186 14.6668 7.82495 14.6495 7.7439 14.6158C7.66284 14.5822 7.58923 14.5328 7.52729 14.4706L7.52329 14.466L7.51196 14.4546L7.47063 14.4126C7.23564 14.1705 7.0045 13.9247 6.77729 13.6753C6.20711 13.0501 5.66093 12.4034 5.13996 11.7366C4.54529 10.97 3.93729 10.1033 3.47529 9.24731C3.02329 8.40798 2.66663 7.49865 2.66663 6.66665C2.66663 3.64065 5.06129 1.33331 7.99996 1.33331C10.9386 1.33331 13.3333 3.64065 13.3333 6.66665C13.3333 7.49865 12.9766 8.40798 12.5246 9.24665C12.0626 10.104 11.4553 10.97 10.86 11.7366C10.1311 12.6694 9.35315 13.5627 8.52929 14.4126L8.48796 14.4546L8.47663 14.466L8.47263 14.47L7.99996 14ZM7.99996 8.66665C8.53039 8.66665 9.0391 8.45593 9.41417 8.08086C9.78925 7.70579 9.99996 7.19708 9.99996 6.66665C9.99996 6.13621 9.78925 5.62751 9.41417 5.25243C9.0391 4.87736 8.53039 4.66665 7.99996 4.66665C7.46953 4.66665 6.96082 4.87736 6.58575 5.25243C6.21067 5.62751 5.99996 6.13621 5.99996 6.66665C5.99996 7.19708 6.21067 7.70579 6.58575 8.08086C6.96082 8.45593 7.46953 8.66665 7.99996 8.66665Z"/>
</svg>
