<svg viewBox="0 0 14 14" xmlns="http://www.w3.org/2000/svg">
<path d="M9.91666 5.34919C9.80736 5.24055 9.65952 5.17957 9.50541 5.17957C9.3513 5.17957 9.20345 5.24055 9.09416 5.34919L6.99999 7.41419L4.93499 5.34919C4.8257 5.24055 4.67785 5.17957 4.52374 5.17957C4.36963 5.17957 4.22179 5.24055 4.11249 5.34919C4.05782 5.40342 4.01442 5.46794 3.9848 5.53902C3.95519 5.61011 3.93994 5.68635 3.93994 5.76336C3.93994 5.84037 3.95519 5.91661 3.9848 5.9877C4.01442 6.05878 4.05782 6.1233 4.11249 6.17753L6.58582 8.65086C6.64005 8.70554 6.70457 8.74893 6.77565 8.77855C6.84674 8.80816 6.92298 8.82341 6.99999 8.82341C7.077 8.82341 7.15324 8.80816 7.22433 8.77855C7.29541 8.74893 7.35993 8.70554 7.41416 8.65086L9.91666 6.17753C9.97133 6.1233 10.0147 6.05878 10.0443 5.9877C10.074 5.91661 10.0892 5.84037 10.0892 5.76336C10.0892 5.68635 10.074 5.61011 10.0443 5.53902C10.0147 5.46794 9.97133 5.40342 9.91666 5.34919Z"/>
</svg>
